<?xml version="1.0" encoding="UTF-8"?><svg id="a" xmlns="http://www.w3.org/2000/svg" width="500" height="135" viewBox="0 0 500 135"><path d="M361.35,102.88h-4.9V40.08c4.93,0,9.53-.63,12.71,1.78,1.47,1.11,2.67,3.21,2.67,5.81v47.64c0,3.99-2.88,6.87-6.06,7.3-1.48,.2-2.85,.28-4.41,.28h0ZM348.2,.88V111.11h17.6c7.22,0,14.49-7.15,14.49-14.48V46.75c0-4.71-2.3-8.59-5.62-11.31-5.41-4.43-10.56-3.83-18.22-3.83V.88c0-.5-.16-.67-.67-.67h-6.92c-.5,0-.67,.16-.67,.67h0Zm-51.71,31.4v52.56c0,11.01,5.18,18.57,14.28,23.81,1.7,.98,7.06,3.12,9.58,3.12,0,5.12,.71,9.69-2.52,12.4-3.51,2.97-7.45,2.29-12.86,2.29v8.25c7.87,0,13.54,1.06,19.11-4.51,2.02-2.01,4.75-6.09,4.75-9.96V31.6h-8.48V102.88c-3.8,0-7.06-2.17-9.31-4.28-.58-.55-.68-.88-1.22-1.46-1.02-1.1-1.59-1.96-2.4-3.17-1.31-1.95-2.67-4.97-2.67-8.23-.02-16.93-.23-35.1,.01-51.91,.04-2.83,1.04-2.23-7.59-2.23-.51,0-.67,.16-.67,.67h-.01Zm171.4,12.47V111.12h8.48V45.65c0-1.71,1.32-3.79,2.29-4.61,2.6-2.23,5.98-3.3,9-1.31,1.97,1.29,3.87,3.39,3.87,6.15V111.13h8.48V44.98c0-1.96-.75-4.3-1.41-5.7-2.09-4.54-7.73-8.99-13.07-8.99s-9.15,.33-13.22,4.4c-2.7,2.72-4.4,5.84-4.4,10.07m-219.99,3.11v11.8c0,.89,10.71,10.81,12.1,12.19l9.14,9.13c.62,.63,3.07,2.43,3.07,3.18v12.25c0,4.38-3.92,7.79-7.36,7.79h-1.56c-3.61,0-7.13-3.69-7.13-7.36v-4h-8.24c0,5.35,0,10.45,3.94,14.54,4.22,4.38,7.74,5.28,13.66,5.28,7.54,0,14.7-7.8,14.7-15.6v-16.92c0-.78-10.58-10.68-12.08-12.19l-9.04-9.02c-3.89-3.9-2.95-1.2-2.95-12.41,0-4.5,3.56-7.79,6.68-7.79,2.86,0,4.31,0,6.85,2.49,2.99,2.91,2.51,4.71,2.51,8.85h8.03c0-6.07,.18-10.21-4.51-14.87-4.58-4.53-7.23-4.96-13.33-4.96-2.42,0-4.64,.95-6.24,1.78-5.98,3.09-8.25,9.31-8.25,15.82h0s.02,0,.02,0Zm150.45-.89V111.14h8.47V49.89c0-3.28,1.74-5.77,3.64-7.27,3.71-2.89,6.61-2.55,11.73-2.55v-7.79c0-1.1-1.75-.67-4.68-.67-6.15,0-10.13,.76-13.54,3.63-2.82,2.38-5.64,6.64-5.64,11.74h.02Zm39.01-14.7v7.79h3.58V111.13h8.47V32.28c0-.51-.16-.67-.68-.67h-10.71c-.51,0-.66,.16-.66,.67h-.01Zm3.56-23.16v7.8h8.48v-7.8c0-.51-.16-.67-.67-.67h-7.13c-.51,0-.67,.16-.67,.67h-.01ZM127.92,134.79c51.06,0,102.11-32.52,101.86-65.89C229.52,34.99,183.09,.21,116.2,.21,59.33,.21,0,25.41,0,62.33c0,44.92,132.37,60.82,132.37,38.71,0-17.31-69.54-18.16-69.54-56.42,0-34.16,66.62-51.57,105.71-13.81-11.2,8.4-19.37,14.21-25.5,19.01-14.7-13.16-41.38-15.1-41.71-4.45,0,14.35,69.19,15.06,69.19,55.63,0,16.42-21.04,33.79-42.59,33.79h-.01Z" fill="#002664"/></svg>